<svg height="512" viewBox="0 0 512 512" width="512" xmlns="http://www.w3.org/2000/svg"><g id="BULINE"><circle cx="256" cy="256" fill="#00b564" r="256"/></g><g id="Icons"><path d="m487.41 365.6c-41.06 86.55-129.25 146.4-231.41 146.4s-190.35-59.85-231.41-146.4z" fill="#009950"/><path d="m136.64 104.07h-41.71l4.26-11.88 12.89-36c1.62-4.51 5.79-4.51 7.41 0l12.89 36z" fill="#db1b1b"/><path d="m136.64 104.07h-41.71l4.26-11.88h33.19z" fill="#c41616"/><path d="m88.41 128.4h54.74v209.11h-54.74z" fill="#f55b4b"/><g fill="#db1b1b"><path d="m88.41 337.51h54.74a0 0 0 0 1 0 0v14.19a13.9 13.9 0 0 1 -13.9 13.9h-26.93a13.9 13.9 0 0 1 -13.9-13.9v-14.19a0 0 0 0 1 -.01 0z"/><path d="m94.93 103.2h41.71a6.52 6.52 0 0 1 6.52 6.52v18.68a0 0 0 0 1 0 0h-54.75a0 0 0 0 1 0 0v-18.68a6.52 6.52 0 0 1 6.52-6.52z"/><path d="m107.39 103.2v.87h-12.46l.31-.87z"/></g><path d="m107.39 103.2v.87h-12.46l.31-.87z" fill="#c41616"/><path d="m88.41 128.4h18.98v209.11h-18.98z" fill="#e04f44"/><path d="m107.39 337.51v27.8h-7.91a13.91 13.91 0 0 1 -11.07-13.61v-14.19z" fill="#c41616"/><path d="m107.39 103.2v25.2h-19v-18.68a6.52 6.52 0 0 1 6.52-6.52z" fill="#c41616"/><path d="m88.41 139.4h54.74v16.8h-54.74z" fill="#32314b"/><path d="m88.41 139.41h18.98v16.8h-18.98z" fill="#27273d"/><rect fill="#fff" height="127.43" rx="10.86" width="21.72" x="104.92" y="169.96"/><path d="m107.39 173.92v119.51a10.85 10.85 0 0 1 -2.47-6.9v-105.71a10.83 10.83 0 0 1 2.47-6.9z" fill="#d6d4d4"/><path d="m88.41 309.12h54.74v16.8h-54.74z" fill="#32314b"/><path d="m88.41 309.12h18.98v16.8h-18.98z" fill="#27273d"/><path d="m206.15 104.07h-41.71l4.26-11.88 12.89-36c1.62-4.51 5.79-4.51 7.41 0l12.89 36z" fill="#f7bb38"/><path d="m206.15 104.07h-41.71l4.26-11.88h33.19z" fill="#dda431"/><path d="m157.92 128.4h54.74v209.11h-54.74z" fill="#f6d372"/><path d="m157.92 337.51h54.74a0 0 0 0 1 0 0v14.19a13.9 13.9 0 0 1 -13.9 13.9h-26.93a13.9 13.9 0 0 1 -13.9-13.9v-14.19a0 0 0 0 1 -.01 0z" fill="#f7bb38"/><path d="m164.44 103.2h41.71a6.52 6.52 0 0 1 6.52 6.52v18.68a0 0 0 0 1 0 0h-54.75a0 0 0 0 1 0 0v-18.68a6.52 6.52 0 0 1 6.52-6.52z" fill="#f7bb38"/><path d="m157.92 128.4h18.98v209.11h-18.98z" fill="#f7bb38"/><path d="m176.9 337.51v27.8h-7.9a13.91 13.91 0 0 1 -11.07-13.61v-14.19z" fill="#dda431"/><path d="m176.9 103.2v25.2h-19v-18.68a6.52 6.52 0 0 1 6.52-6.52z" fill="#dda431"/><path d="m157.92 309.12h54.74v16.8h-54.74z" fill="#32314b"/><path d="m157.92 139.4h54.74v16.8h-54.74z" fill="#32314b"/><rect fill="#fff" height="127.43" rx="10.86" width="21.72" x="174.43" y="169.96"/><path d="m157.92 309.12h18.98v16.8h-18.98z" fill="#27273d"/><path d="m157.92 139.41h18.98v16.8h-18.98z" fill="#27273d"/><path d="m176.9 173.92v119.51a10.85 10.85 0 0 1 -2.47-6.9v-105.71a10.83 10.83 0 0 1 2.47-6.9z" fill="#d6d4d4"/><path d="m275.66 104.07h-41.66l4.26-11.88 12.89-36c1.62-4.51 5.79-4.51 7.41 0l12.89 36z" fill="#3586cb"/><path d="m275.66 104.07h-41.71l4.26-11.88h33.19z" fill="#366fca"/><path d="m227.43 128.4h54.74v209.11h-54.74z" fill="#7cc8fb"/><path d="m227.43 337.51h54.74a0 0 0 0 1 0 0v14.19a13.9 13.9 0 0 1 -13.9 13.9h-26.93a13.9 13.9 0 0 1 -13.9-13.9v-14.19a0 0 0 0 1 -.01 0z" fill="#3586cb"/><path d="m234 103.2h41.71a6.52 6.52 0 0 1 6.52 6.52v18.68a0 0 0 0 1 0 0h-54.8a0 0 0 0 1 0 0v-18.68a6.52 6.52 0 0 1 6.57-6.52z" fill="#3586cb"/><rect fill="#fff" height="127.43" rx="10.86" width="21.72" x="243.94" y="169.96"/><path d="m227.43 128.4h18.98v209.11h-18.98z" fill="#41c0e3"/><path d="m246.41 337.51v27.8h-7.91a13.91 13.91 0 0 1 -11.07-13.61v-14.19z" fill="#366fca"/><path d="m246.41 103.2v25.2h-19v-18.68a6.52 6.52 0 0 1 6.59-6.52z" fill="#366fca"/><path d="m246.41 173.92v119.51a10.85 10.85 0 0 1 -2.47-6.9v-105.71a10.83 10.83 0 0 1 2.47-6.9z" fill="#d6d4d4"/><path d="m227.43 139.4h54.74v16.8h-54.74z" fill="#32314b"/><path d="m227.43 139.41h18.98v16.8h-18.98z" fill="#27273d"/><path d="m227.43 309.12h54.74v16.8h-54.74z" fill="#32314b"/><path d="m227.43 309.12h18.98v16.8h-18.98z" fill="#27273d"/><path d="m345.17 104.07h-41.71l4.26-11.88 12.89-36c1.62-4.51 5.79-4.51 7.41 0l12.89 36z" fill="#aa60fa"/><path d="m345.17 104.07h-41.71l4.26-11.88h33.19z" fill="#934cf5"/><path d="m296.94 128.4h54.74v209.11h-54.74z" fill="#a99bd4"/><path d="m296.94 337.51h54.74a0 0 0 0 1 0 0v14.19a13.9 13.9 0 0 1 -13.9 13.9h-26.93a13.9 13.9 0 0 1 -13.9-13.9v-14.19a0 0 0 0 1 -.01 0z" fill="#aa60fa"/><path d="m303.46 103.2h41.71a6.52 6.52 0 0 1 6.52 6.52v18.68a0 0 0 0 1 0 0h-54.75a0 0 0 0 1 0 0v-18.68a6.52 6.52 0 0 1 6.52-6.52z" fill="#aa60fa"/><rect fill="#fff" height="127.43" rx="10.86" width="21.72" x="313.45" y="169.96"/><path d="m296.94 128.4h18.98v209.11h-18.98z" fill="#9b91c4"/><path d="m315.92 337.51v27.8h-7.92a13.91 13.91 0 0 1 -11.07-13.61v-14.19z" fill="#934cf5"/><path d="m315.92 103.2v25.2h-19v-18.68a6.52 6.52 0 0 1 6.52-6.52z" fill="#934cf5"/><path d="m315.92 173.92v119.51a10.85 10.85 0 0 1 -2.47-6.9v-105.71a10.83 10.83 0 0 1 2.47-6.9z" fill="#d6d4d4"/><path d="m296.94 309.12h54.74v16.8h-54.74z" fill="#32314b"/><path d="m296.94 139.4h54.74v16.8h-54.74z" fill="#32314b"/><path d="m296.94 309.12h18.98v16.8h-18.98z" fill="#27273d"/><path d="m296.94 139.41h18.98v16.8h-18.98z" fill="#27273d"/><path d="m415 104.07h-41.72l4.26-11.88 12.9-36c1.61-4.51 5.78-4.51 7.4 0l12.89 36z" fill="#fc4581"/><path d="m414.99 104.07h-41.7l4.25-11.88h33.19z" fill="#fa3268"/><path d="m366.77 128.4h54.74v209.11h-54.74z" fill="#f58d89"/><path d="m366.77 337.51h54.74a0 0 0 0 1 0 0v14.19a13.9 13.9 0 0 1 -13.9 13.9h-26.94a13.9 13.9 0 0 1 -13.9-13.9v-14.19a0 0 0 0 1 0 0z" fill="#fc4581"/><path d="m373.28 103.2h41.72a6.52 6.52 0 0 1 6.52 6.52v18.68a0 0 0 0 1 0 0h-54.75a0 0 0 0 1 0 0v-18.68a6.52 6.52 0 0 1 6.51-6.52z" fill="#fc4581"/><rect fill="#fff" height="127.43" rx="10.86" width="21.72" x="383.28" y="169.96"/><path d="m366.77 128.4h18.98v209.11h-18.98z" fill="#e07e7e"/><path d="m385.74 337.51v27.8h-7.9a13.9 13.9 0 0 1 -11.07-13.61v-14.19z" fill="#fa3268"/><path d="m385.74 103.2v25.2h-19v-18.68a6.52 6.52 0 0 1 6.51-6.52z" fill="#fa3268"/><path d="m385.74 173.92v119.51a10.9 10.9 0 0 1 -2.46-6.9v-105.71a10.88 10.88 0 0 1 2.46-6.9z" fill="#d6d4d4"/><path d="m366.77 309.12h54.74v16.8h-54.74z" fill="#32314b"/><path d="m366.77 139.4h54.74v16.8h-54.74z" fill="#32314b"/><path d="m366.77 309.12h18.98v16.8h-18.98z" fill="#27273d"/><path d="m366.77 139.41h18.98v16.8h-18.98z" fill="#27273d"/><path d="m149.83 411.22v41.71l-11.83-4.26-36-12.89c-4.51-1.62-4.51-5.79 0-7.41l36-12.89z" fill="#a65c3b"/><path d="m149.83 411.22v41.71l-11.88-4.26v-33.19z" fill="#9e4830"/><path d="m251.34 327.52h54.74v209.11h-54.74z" fill="#e88032" transform="matrix(0 -1 1 0 -153.36 710.78)"/><path d="m369.94 418h54.74a0 0 0 0 1 0 0v14.19a13.9 13.9 0 0 1 -13.9 13.9h-26.94a13.9 13.9 0 0 1 -13.9-13.9v-14.19a0 0 0 0 1 0 0z" fill="#a65c3b" transform="matrix(0 -1 1 0 -34.76 829.39)"/><path d="m140.7 419.48h41.71a6.52 6.52 0 0 1 6.52 6.52v18.68a0 0 0 0 1 0 0h-54.74a0 0 0 0 1 0 0v-18.68a6.52 6.52 0 0 1 6.51-6.52z" fill="#a65c3b" transform="matrix(0 -1 1 0 -270.52 593.63)"/><rect fill="#fff" height="127.43" rx="10.86" transform="matrix(0 -1 1 0 -152.64 711.51)" width="21.72" x="268.57" y="368.36"/><path d="m174.16 440.47h209.11v18.98h-209.11z" fill="#ce6f2e"/><path d="m383.27 440.47h27.8v7.9a13.91 13.91 0 0 1 -13.61 11.07h-14.19z" fill="#9e4830"/><path d="m149 440.47h25.2v19h-18.72a6.52 6.52 0 0 1 -6.52-6.51z" fill="#9e4830"/><path d="m219.68 440.47h119.51a10.9 10.9 0 0 1 -6.9 2.46h-105.71a10.88 10.88 0 0 1 -6.9-2.46z" fill="#d6d4d4"/><path d="m335.91 423.67h54.74v16.8h-54.74z" fill="#32314b" transform="matrix(0 -1 1 0 -68.79 795.36)"/><path d="m166.19 423.67h54.74v16.8h-54.74z" fill="#32314b" transform="matrix(0 -1 1 0 -238.51 625.64)"/><path d="m354.88 440.47h16.8v18.98h-16.8z" fill="#27273d"/><path d="m185.17 440.47h16.8v18.98h-16.8z" fill="#27273d"/></g></svg>