<svg height="512pt" viewBox="0 0 512 512" width="512pt" xmlns="http://www.w3.org/2000/svg"><path d="m502 56.089844c0 25.453125-20.632812 46.089844-46.089844 46.089844-25.453125 0-46.089844-20.636719-46.089844-46.089844 0-25.457032 20.636719-46.089844 46.089844-46.089844 25.457032 0 46.089844 20.632812 46.089844 46.089844zm0 0" fill="#ffd170"/><path d="m455.910156 112.179688c-30.925781 0-56.089844-25.164063-56.089844-56.089844 0-30.929688 25.164063-56.089844 56.089844-56.089844 30.929688 0 56.089844 25.160156 56.089844 56.089844 0 30.925781-25.160156 56.089844-56.089844 56.089844zm0-92.179688c-19.898437 0-36.089844 16.1875-36.089844 36.089844 0 19.898437 16.191407 36.089844 36.089844 36.089844 19.898438 0 36.089844-16.191407 36.089844-36.089844 0-19.898438-16.191406-36.089844-36.089844-36.089844zm0 0"/><path d="m157.394531 126.910156-98.605469 76.621094v230.734375h197.210938l-.003906-230.734375zm0 0" fill="#fcc595"/><path d="m130.058594 373.765625h54.671875v60.5h-54.671875zm0 0" fill="#d38a5a"/><path d="m157.394531 78.441406-114.433593 88.921875v48.46875l114.433593-88.921875 98.605469 76.621094v-48.46875zm0 0" fill="#ff5046"/><path d="m85.832031 218.589844h55.226563v46.09375h-55.226563zm0 0" fill="#a7dbd8"/><path d="m141.058594 274.683594h-55.226563c-5.523437 0-10-4.480469-10-10v-46.09375c0-5.523438 4.476563-10 10-10h55.226563c5.523437 0 10 4.476562 10 10v46.09375c0 5.519531-4.476563 10-10 10zm-45.226563-20h35.226563v-26.09375h-35.226563zm0 0"/><path d="m173.738281 218.589844h55.230469v46.09375h-55.230469zm0 0" fill="#a7dbd8"/><path d="m228.96875 274.683594h-55.230469c-5.519531 0-10-4.480469-10-10v-46.09375c0-5.523438 4.480469-10 10-10h55.230469c5.519531 0 10 4.476562 10 10v46.09375c0 5.519531-4.480469 10-10 10zm-45.230469-20h35.230469v-26.09375h-35.230469zm0 0"/><path d="m85.832031 297.328125h55.226563v46.09375h-55.226563zm0 0" fill="#a7dbd8"/><path d="m141.058594 353.421875h-55.226563c-5.523437 0-10-4.476563-10-10v-46.09375c0-5.519531 4.476563-10 10-10h55.226563c5.523437 0 10 4.480469 10 10v46.09375c0 5.523437-4.476563 10-10 10zm-45.226563-20h35.226563v-26.09375h-35.226563zm0 0"/><path d="m173.738281 297.328125h55.230469v46.09375h-55.230469zm0 0" fill="#a7dbd8"/><path d="m228.96875 353.421875h-55.230469c-5.519531 0-10-4.476563-10-10v-46.09375c0-5.519531 4.480469-10 10-10h55.230469c5.519531 0 10 4.480469 10 10v46.09375c0 5.523437-4.480469 10-10 10zm-45.230469-20h35.230469v-26.09375h-35.230469zm0 0"/><path d="m354.605469 126.910156 98.605469 76.621094v230.734375h-197.210938l.003906-230.734375zm0 0" fill="#fcc595"/><path d="m327.269531 373.765625h54.671875v60.5h-54.671875zm0 0" fill="#d38a5a"/><path d="m354.605469 78.441406 114.433593 88.921875v48.46875l-114.433593-88.921875-98.605469 76.621094v-48.46875zm0 0" fill="#ff5046"/><path d="m370.941406 218.589844h55.226563v46.09375h-55.226563zm0 0" fill="#a7dbd8"/><path d="m426.167969 274.683594h-55.226563c-5.523437 0-10-4.480469-10-10v-46.09375c0-5.523438 4.476563-10 10-10h55.226563c5.523437 0 10 4.476562 10 10v46.09375c0 5.519531-4.476563 10-10 10zm-45.226563-20h35.226563v-26.09375h-35.226563zm0 0"/><path d="m283.03125 218.589844h55.230469v46.09375h-55.230469zm0 0" fill="#a7dbd8"/><path d="m338.261719 274.683594h-55.230469c-5.519531 0-10-4.480469-10-10v-46.09375c0-5.523438 4.480469-10 10-10h55.230469c5.519531 0 10 4.476562 10 10v46.09375c0 5.519531-4.480469 10-10 10zm-45.230469-20h35.230469v-26.09375h-35.230469zm0 0"/><path d="m370.941406 297.328125h55.226563v46.09375h-55.226563zm0 0" fill="#a7dbd8"/><path d="m426.167969 353.421875h-55.226563c-5.523437 0-10-4.476563-10-10v-46.09375c0-5.519531 4.476563-10 10-10h55.226563c5.523437 0 10 4.480469 10 10v46.09375c0 5.523437-4.476563 10-10 10zm-45.226563-20h35.226563v-26.09375h-35.226563zm0 0"/><path d="m283.03125 297.328125h55.230469v46.09375h-55.230469zm0 0" fill="#a7dbd8"/><path d="m338.261719 353.421875h-55.230469c-5.519531 0-10-4.476563-10-10v-46.09375c0-5.519531 4.480469-10 10-10h55.230469c5.519531 0 10 4.480469 10 10v46.09375c0 5.523437-4.480469 10-10 10zm-45.230469-20h35.230469v-26.09375h-35.230469zm0 0"/><path d="m10 434.265625h492v67.734375h-492zm0 0" fill="#a7dbd8"/><path d="m250.871094 478.128906c-.652344 0-1.3125-.058594-1.949219-.1875-.640625-.132812-1.273437-.320312-1.871094-.570312-.609375-.25-1.191406-.558594-1.730469-.921875-.550781-.367188-1.058593-.777344-1.519531-1.25-.460937-.457031-.878906-.96875-1.242187-1.519531-.359375-.539063-.667969-1.121094-.917969-1.71875-.25-.609376-.441406-1.242188-.570313-1.871094-.128906-.648438-.199218-1.308594-.199218-1.960938 0-.648437.070312-1.308594.199218-1.949218.128907-.640626.320313-1.269532.570313-1.871094.25-.609375.558594-1.1875.917969-1.726563.363281-.550781.78125-1.0625 1.242187-1.523437.460938-.457032.96875-.878906 1.519531-1.238282.539063-.359374 1.121094-.671874 1.730469-.921874.597657-.25 1.230469-.4375 1.871094-.566407 1.289063-.261719 2.609375-.261719 3.90625 0 .632813.128907 1.261719.316407 1.871094.566407.601562.25 1.179687.5625 1.722656.921874.546875.359376 1.058594.78125 1.519531 1.238282.457032.460937.878906.972656 1.25 1.523437.359375.539063.667969 1.117188.917969 1.726563.25.601562.441406 1.230468.570313 1.871094.128906.640624.191406 1.300781.191406 1.949218 0 .652344-.0625 1.3125-.191406 1.960938-.128907.628906-.328126 1.261718-.578126 1.871094-.25.597656-.550781 1.179687-.910156 1.71875-.371094.550781-.792968 1.0625-1.25 1.519531-.460937.460937-.972656.882812-1.519531 1.25-.542969.359375-1.121094.671875-1.722656.921875-.609375.25-1.238281.441406-1.871094.570312-.648437.128906-1.308594.1875-1.957031.1875zm0 0"/><path d="m406 478.132812h-110c-5.523438 0-10-4.476562-10-10 0-5.523437 4.476562-10 10-10h110c5.523438 0 10 4.476563 10 10 0 5.523438-4.476562 10-10 10zm0 0"/><path d="m502 424.265625h-38.789062v-200.308594c1.726562 1.238281 3.773437 1.875 5.832031 1.875 1.496093 0 3-.335937 4.394531-1.019531 3.429688-1.675781 5.601562-5.164062 5.601562-8.980469v-48.46875c0-3.089843-1.425781-6.003906-3.863281-7.894531l-114.433593-88.925781c-3.609376-2.804688-8.660157-2.804688-12.269532 0l-92.472656 71.855469-92.472656-71.855469c-3.605469-2.804688-8.660156-2.804688-12.269532 0l-114.433593 88.921875c-2.4375 1.894531-3.863281 4.808594-3.863281 7.898437v48.46875c0 3.816407 2.171874 7.304688 5.601562 8.980469 1.394531.683594 2.898438 1.019531 4.394531 1.019531 2.058594 0 4.105469-.636719 5.832031-1.878906v200.3125h-38.789062c-5.523438 0-10 4.476563-10 10v67.734375c0 5.523438 4.476562 10 10 10h492c5.523438 0 10-4.476562 10-10v-67.734375c0-5.523437-4.476562-10-10-10zm-130.058594 0h-34.671875v-40.5h34.675781v40.5zm10-60.5h-54.671875c-5.523437 0-10 4.476563-10 10v50.5h-51.269531l.003906-215.839844 88.601563-68.851562 88.605469 68.851562-.003907 215.839844h-51.265625v-50.5c0-5.523437-4.476562-10-10-10zm-27.335937-272.660156 104.433593 81.152343v23.136719l-98.296874-76.382812c-.226563-.171875-.457032-.339844-.691407-.492188-3.308593-2.148437-7.582031-2.148437-10.886719 0-.234374.152344-.46875.320313-.691406.492188l-82.472656 64.085937v-23.140625zm-197.210938 0 88.605469 68.851562v23.140625l-82.472656-64.085937c-3.605469-2.804688-8.660156-2.804688-12.269532 0l-98.296874 76.382812v-23.136719zm-88.605469 117.320312 88.605469-68.851562 88.601563 68.851562.003906 215.839844h-51.269531v-50.5c0-5.523437-4.476563-10-10-10h-54.675781c-5.519532 0-10 4.476563-10 10v50.5h-51.265626zm105.941407 215.839844h-34.675781v-40.5h34.675781zm-154.730469 67.734375v-13.867188h190.988281c5.523438 0 10-4.476562 10-10 0-5.523437-4.476562-10-10-10h-190.988281v-13.867187h472v13.867187h-35c-5.523438 0-10 4.476563-10 10 0 5.523438 4.476562 10 10 10h35v13.867188zm0 0"/></svg>