<svg height="512pt" viewBox="0 -48 512 512" width="512pt" xmlns="http://www.w3.org/2000/svg"><path d="m512 315.679688v100.320312h-512v-100.320312l52.320312-91.679688 11.679688-20.320312v-123.679688h384v123.679688l11.679688 20.320312zm0 0" fill="#e76e54"/><g fill="#fff"><path d="m208 192h32v32h-32zm0 0"/><path d="m272 192h32v32h-32zm0 0"/><path d="m144 256h32v32h-32zm0 0"/><path d="m208 256h32v32h-32zm0 0"/><path d="m272 256h32v32h-32zm0 0"/><path d="m336 256h32v32h-32zm0 0"/><path d="m208 320h32v32h-32zm0 0"/><path d="m272 320h32v32h-32zm0 0"/></g><path d="m459.679688 224h-43.679688c-41.761719 0-77.28125-26.71875-90.558594-64h-138.882812c-13.277344 37.28125-48.796875 64-90.558594 64h-43.679688l11.679688-20.320312v-123.679688h384v123.679688zm0 0" fill="#dd523c"/><path d="m512 192h-96c-35.296875 0-64-28.703125-64-64h-192c0 35.296875-28.703125 64-64 64h-96v-112c0-44.113281 35.886719-80 80-80h352c44.113281 0 80 35.886719 80 80zm0 0" fill="#b0b4b9"/><path d="m384 80h-256c0 35.296875-12.703125 64-48 64h-80v48h96c35.296875 0 64-28.703125 64-64h192c0 35.296875 28.703125 64 64 64h96v-48h-80c-35.296875 0-48-28.703125-48-64zm0 0" fill="#9da2a5"/><path d="m0 384h512v32h-512zm0 0" fill="#dd523c"/><path d="m64 32h32v32h-32zm0 0" fill="#fff"/><path d="m432 32h32v32h-32zm0 0" fill="#fff"/></svg>