<svg height="512pt" viewBox="0 -64 512 512" width="512pt" xmlns="http://www.w3.org/2000/svg"><path d="m424 56h32v32h-32zm0 0" fill="#aab2bd"/><path d="m56 56h32v32h-32zm0 0" fill="#aab2bd"/><path d="m504 24v96c0 8.800781-7.199219 16-16 16h-64v-48h32v-32h-400v32h32v48h-64c-8.800781 0-16-7.199219-16-16v-96c0-8.800781 7.199219-16 16-16h464c8.800781 0 16 7.199219 16 16zm0 0" fill="#ccd1d9"/><path d="m195.679688 280c-5.519532-9.601562-15.832032-16-27.679688-16s-22.160156 6.398438-27.679688 16c-2.71875 4.71875-4.320312 10.160156-4.320312 16 0 17.679688 14.320312 32 32 32s32-14.320312 32-32c0-5.839844-1.601562-11.28125-4.320312-16zm0 0" fill="#ffce54"/><path d="m200 264c0 5.839844-1.601562 11.28125-4.320312 16-5.519532-9.601562-15.832032-16-27.679688-16s-22.160156 6.398438-27.679688 16c-2.71875-4.71875-4.320312-10.160156-4.320312-16 0-17.679688 14.320312-32 32-32s32 14.320312 32 32zm0 0" fill="#f6bb42"/><path d="m184 56h240v288c0 17.679688-14.320312 32-32 32h-272c-17.679688 0-32-14.320312-32-32v-288zm11.679688 224c2.71875-4.71875 4.320312-10.160156 4.320312-16 0-17.679688-14.320312-32-32-32s-32 14.320312-32 32c0 5.839844 1.601562 11.28125 4.320312 16-2.71875 4.71875-4.320312 10.160156-4.320312 16 0 17.679688 14.320312 32 32 32s32-14.320312 32-32c0-5.839844-1.601562-11.28125-4.320312-16zm0 0" fill="#ac92ec"/><path d="m488 144c-4.425781 0-8-3.574219-8-8s3.574219-8 8-8c4.414062 0 8-3.585938 8-8v-96c0-4.414062-3.585938-8-8-8h-464c-4.414062 0-8 3.585938-8 8v96c0 4.414062 3.585938 8 8 8 4.425781 0 8 3.574219 8 8s-3.574219 8-8 8c-13.230469 0-24-10.769531-24-24v-96c0-13.230469 10.769531-24 24-24h464c13.230469 0 24 10.769531 24 24v96c0 13.230469-10.769531 24-24 24zm0 0"/><path d="m456 96c-4.425781 0-8-3.574219-8-8v-24h-384v24c0 4.425781-3.574219 8-8 8s-8-3.574219-8-8v-32c0-4.425781 3.574219-8 8-8h400c4.425781 0 8 3.574219 8 8v32c0 4.425781-3.574219 8-8 8zm0 0"/><path d="m88 96h-32c-4.425781 0-8-3.574219-8-8s3.574219-8 8-8h32c4.425781 0 8 3.574219 8 8s-3.574219 8-8 8zm0 0"/><path d="m456 96h-32c-4.425781 0-8-3.574219-8-8s3.574219-8 8-8h32c4.425781 0 8 3.574219 8 8s-3.574219 8-8 8zm0 0"/><path d="m88 144h-64c-4.425781 0-8-3.574219-8-8s3.574219-8 8-8h64c4.425781 0 8 3.574219 8 8s-3.574219 8-8 8zm0 0"/><path d="m488 144h-64c-4.425781 0-8-3.574219-8-8s3.574219-8 8-8h64c4.425781 0 8 3.574219 8 8s-3.574219 8-8 8zm0 0"/><path d="m88 352c-4.425781 0-8-3.574219-8-8v-288c0-4.425781 3.574219-8 8-8s8 3.574219 8 8v288c0 4.425781-3.574219 8-8 8zm0 0"/><path d="m424 352c-4.425781 0-8-3.574219-8-8v-288c0-4.425781 3.574219-8 8-8s8 3.574219 8 8v288c0 4.425781-3.574219 8-8 8zm0 0"/><path d="m120 384c-22.054688 0-40-17.945312-40-40 0-4.425781 3.574219-8 8-8s8 3.574219 8 8c0 13.230469 10.769531 24 24 24 4.425781 0 8 3.574219 8 8s-3.574219 8-8 8zm0 0"/><path d="m392 384c-4.425781 0-8-3.574219-8-8s3.574219-8 8-8c13.230469 0 24-10.769531 24-24 0-4.425781 3.574219-8 8-8s8 3.574219 8 8c0 22.054688-17.945312 40-40 40zm0 0"/><path d="m392 384h-272c-4.425781 0-8-3.574219-8-8s3.574219-8 8-8h272c4.425781 0 8 3.574219 8 8s-3.574219 8-8 8zm0 0"/><path d="m168 336c-22.054688 0-40-17.945312-40-40s17.945312-40 40-40 40 17.945312 40 40-17.945312 40-40 40zm0-64c-13.230469 0-24 10.769531-24 24s10.769531 24 24 24 24-10.769531 24-24-10.769531-24-24-24zm0 0"/><path d="m168 304c-22.054688 0-40-17.945312-40-40s17.945312-40 40-40 40 17.945312 40 40-17.945312 40-40 40zm0-64c-13.230469 0-24 10.769531-24 24s10.769531 24 24 24 24-10.769531 24-24-10.769531-24-24-24zm0 0"/><path d="m152 184c-4.425781 0-8-3.574219-8-8v-120c0-4.425781 3.574219-8 8-8s8 3.574219 8 8v120c0 4.425781-3.574219 8-8 8zm0 0"/><path d="m184 184c-4.425781 0-8-3.574219-8-8v-120c0-4.425781 3.574219-8 8-8s8 3.574219 8 8v120c0 4.425781-3.574219 8-8 8zm0 0"/><path d="m288 336h-16c-4.425781 0-8-3.574219-8-8s3.574219-8 8-8h16c4.425781 0 8 3.574219 8 8s-3.574219 8-8 8zm0 0"/><path d="m288 304h-16c-4.425781 0-8-3.574219-8-8s3.574219-8 8-8h16c4.425781 0 8 3.574219 8 8s-3.574219 8-8 8zm0 0"/><path d="m288 272h-16c-4.425781 0-8-3.574219-8-8s3.574219-8 8-8h16c4.425781 0 8 3.574219 8 8s-3.574219 8-8 8zm0 0"/><path d="m288 240h-16c-4.425781 0-8-3.574219-8-8s3.574219-8 8-8h16c4.425781 0 8 3.574219 8 8s-3.574219 8-8 8zm0 0"/><path d="m288 192h-16c-4.425781 0-8-3.574219-8-8s3.574219-8 8-8h16c4.425781 0 8 3.574219 8 8s-3.574219 8-8 8zm0 0"/><path d="m288 160h-16c-4.425781 0-8-3.574219-8-8s3.574219-8 8-8h16c4.425781 0 8 3.574219 8 8s-3.574219 8-8 8zm0 0"/><path d="m288 128h-16c-4.425781 0-8-3.574219-8-8s3.574219-8 8-8h16c4.425781 0 8 3.574219 8 8s-3.574219 8-8 8zm0 0"/><path d="m288 96h-16c-4.425781 0-8-3.574219-8-8s3.574219-8 8-8h16c4.425781 0 8 3.574219 8 8s-3.574219 8-8 8zm0 0"/><path d="m352 336c-4.425781 0-8-3.574219-8-8v-104c0-4.425781 3.574219-8 8-8s8 3.574219 8 8v104c0 4.425781-3.574219 8-8 8zm0 0"/><path d="m384 336c-4.425781 0-8-3.574219-8-8v-56c0-4.425781 3.574219-8 8-8s8 3.574219 8 8v56c0 4.425781-3.574219 8-8 8zm0 0"/></svg>